<?xml version="1.0" encoding="UTF-8"?>
<!DOCTYPE svg PUBLIC "-//W3C//DTD SVG 1.1//EN" "http://www.w3.org/Graphics/SVG/1.1/DTD/svg11.dtd">
<svg version="1.2" width="182.51mm" height="182.51mm" viewBox="1750 2500 18251 18251" preserveAspectRatio="xMidYMid" fill-rule="evenodd" stroke-width="28.222" stroke-linejoin="round" xmlns="http://www.w3.org/2000/svg" xmlns:ooo="http://xml.openoffice.org/svg/export" xmlns:xlink="http://www.w3.org/1999/xlink" xmlns:presentation="http://sun.com/xmlns/staroffice/presentation" xmlns:smil="http://www.w3.org/2001/SMIL20/" xmlns:anim="urn:oasis:names:tc:opendocument:xmlns:animation:1.0" xml:space="preserve">
 <defs class="EmbeddedBulletChars">
  <g id="bullet-char-template-57356" transform="scale(0.00048828125,-0.00048828125)">
   <path d="M 580,1141 L 1163,571 580,0 -4,571 580,1141 Z"/>
  </g>
  <g id="bullet-char-template-57354" transform="scale(0.00048828125,-0.00048828125)">
   <path d="M 8,1128 L 1137,1128 1137,0 8,0 8,1128 Z"/>
  </g>
  <g id="bullet-char-template-10146" transform="scale(0.00048828125,-0.00048828125)">
   <path d="M 174,0 L 602,739 174,1481 1456,739 174,0 Z M 1358,739 L 309,1346 659,739 1358,739 Z"/>
  </g>
  <g id="bullet-char-template-10132" transform="scale(0.00048828125,-0.00048828125)">
   <path d="M 2015,739 L 1276,0 717,0 1260,543 174,543 174,936 1260,936 717,1481 1274,1481 2015,739 Z"/>
  </g>
  <g id="bullet-char-template-10007" transform="scale(0.00048828125,-0.00048828125)">
   <path d="M 0,-2 C -7,14 -16,27 -25,37 L 356,567 C 262,823 215,952 215,954 215,979 228,992 255,992 264,992 276,990 289,987 310,991 331,999 354,1012 L 381,999 492,748 772,1049 836,1024 860,1049 C 881,1039 901,1025 922,1006 886,937 835,863 770,784 769,783 710,716 594,584 L 774,223 C 774,196 753,168 711,139 L 727,119 C 717,90 699,76 672,76 641,76 570,178 457,381 L 164,-76 C 142,-110 111,-127 72,-127 30,-127 9,-110 8,-76 1,-67 -2,-52 -2,-32 -2,-23 -1,-13 0,-2 Z"/>
  </g>
  <g id="bullet-char-template-10004" transform="scale(0.00048828125,-0.00048828125)">
   <path d="M 285,-33 C 182,-33 111,30 74,156 52,228 41,333 41,471 41,549 55,616 82,672 116,743 169,778 240,778 293,778 328,747 346,684 L 369,508 C 377,444 397,411 428,410 L 1163,1116 C 1174,1127 1196,1133 1229,1133 1271,1133 1292,1118 1292,1087 L 1292,965 C 1292,929 1282,901 1262,881 L 442,47 C 390,-6 338,-33 285,-33 Z"/>
  </g>
  <g id="bullet-char-template-9679" transform="scale(0.00048828125,-0.00048828125)">
   <path d="M 813,0 C 632,0 489,54 383,161 276,268 223,411 223,592 223,773 276,916 383,1023 489,1130 632,1184 813,1184 992,1184 1136,1130 1245,1023 1353,916 1407,772 1407,592 1407,412 1353,268 1245,161 1136,54 992,0 813,0 Z"/>
  </g>
  <g id="bullet-char-template-8226" transform="scale(0.00048828125,-0.00048828125)">
   <path d="M 346,457 C 273,457 209,483 155,535 101,586 74,649 74,723 74,796 101,859 155,911 209,963 273,989 346,989 419,989 480,963 531,910 582,859 608,796 608,723 608,648 583,586 532,535 482,483 420,457 346,457 Z"/>
  </g>
  <g id="bullet-char-template-8211" transform="scale(0.00048828125,-0.00048828125)">
   <path d="M -4,459 L 1135,459 1135,606 -4,606 -4,459 Z"/>
  </g>
  <g id="bullet-char-template-61548" transform="scale(0.00048828125,-0.00048828125)">
   <path d="M 173,740 C 173,903 231,1043 346,1159 462,1274 601,1332 765,1332 928,1332 1067,1274 1183,1159 1299,1043 1357,903 1357,740 1357,577 1299,437 1183,322 1067,206 928,148 765,148 601,148 462,206 346,322 231,437 173,577 173,740 Z"/>
  </g>
 </defs>
 <g class="Page">
  <g class="Group">
   <g class="com.sun.star.drawing.ClosedBezierShape">
    <g id="id3">
     <rect class="BoundingBox" stroke="none" fill="none" x="5921" y="7884" width="9910" height="3983"/>
     <path fill="rgb(7,100,46)" stroke="none" d="M 10287,11865 C 10088,11860 9928,11843 9769,11810 9563,11768 9371,11703 9195,11614 8858,11444 8593,11193 8419,10879 8387,10824 8350,10744 8325,10684 8254,10506 8208,10310 8189,10110 8183,10038 8181,9916 8184,9843 8198,9528 8282,9227 8431,8951 8611,8622 8880,8345 9206,8159 9217,8153 9238,8141 9252,8133 L 9279,8117 9175,8117 C 8960,8115 6758,8109 6757,8111 6755,8112 6397,8856 6396,8860 6395,8863 6429,8862 7088,8862 7469,8862 7782,8863 7782,8863 7781,8864 7448,9482 7041,10236 L 6300,11608 6304,11609 C 6308,11610 6616,11612 6989,11615 7645,11622 7667,11622 7670,11619 7670,11618 7792,11410 7938,11158 L 8205,10700 8264,10804 C 8296,10861 8324,10911 8327,10915 L 8331,10922 8059,11380 7788,11837 6855,11838 C 6342,11838 5922,11838 5922,11838 5922,11838 6256,11219 6665,10463 7073,9706 7407,9088 7407,9086 7407,9086 7095,9085 6715,9085 L 6022,9085 6323,8485 6623,7886 6835,7886 C 7946,7891 9425,7893 10138,7890 10358,7889 10873,7888 11282,7888 11692,7888 12048,7887 12075,7886 L 12124,7885 12070,7994 C 12016,8103 12015,8103 12009,8107 12006,8109 11999,8112 11995,8113 11982,8115 11710,8116 11494,8114 11383,8114 11180,8112 11044,8112 10795,8110 10692,8109 10575,8105 10489,8103 10248,8103 10199,8105 10086,8111 10011,8118 9928,8132 9713,8167 9510,8239 9322,8347 9049,8502 8823,8724 8662,8994 8460,9330 8373,9723 8412,10116 8434,10325 8493,10532 8581,10711 8710,10974 8910,11190 9165,11347 9429,11508 9745,11604 10106,11634 10174,11639 10316,11641 10714,11642 11004,11643 12019,11640 12077,11639 L 12105,11638 12331,11251 C 12457,11039 12558,10865 12558,10864 12558,10864 12381,10863 12165,10863 11948,10862 11681,10861 11571,10860 11182,10858 10827,10859 10668,10863 10637,10864 10583,10866 10548,10868 10468,10871 10312,10873 10257,10870 10152,10866 10065,10856 9983,10839 9802,10802 9656,10734 9529,10628 9364,10491 9249,10302 9202,10093 9185,10017 9178,9950 9180,9867 9180,9818 9182,9794 9188,9753 9237,9390 9490,9085 9838,8966 10014,8907 10203,8899 10382,8945 10496,8975 10609,9028 10706,9098 10775,9148 10836,9206 10890,9271 10981,9380 11049,9511 11086,9648 11106,9727 11115,9799 11115,9884 11115,9930 11114,9953 11109,9994 11090,10172 11015,10350 10903,10489 10870,10529 10819,10582 10785,10612 L 10767,10627 11859,10627 12950,10628 12594,11242 C 12398,11579 12237,11857 12236,11859 L 12234,11861 11594,11859 C 10941,11857 10912,11857 10746,11861 10627,11865 10572,11865 10454,11865 10385,11866 10309,11865 10287,11865 Z M 10222,10621 C 10333,10613 10445,10574 10543,10511 10614,10463 10684,10398 10738,10327 10845,10184 10900,10010 10888,9839 10879,9673 10816,9520 10710,9397 10690,9373 10649,9333 10649,9335 10648,9335 10649,9342 10649,9350 10651,9373 10650,9421 10649,9442 10634,9564 10576,9674 10468,9782 10395,9855 10312,9917 10196,9986 10118,10032 10065,10068 10014,10111 9990,10130 9947,10174 9932,10193 9899,10234 9879,10272 9869,10310 9863,10332 9863,10368 9867,10393 9880,10472 9939,10544 10023,10589 10063,10609 10106,10621 10151,10624 10162,10625 10200,10623 10222,10621 Z M 9644,10417 C 9639,10384 9639,10330 9644,10294 9649,10260 9660,10220 9674,10188 9717,10086 9802,9988 9927,9895 9974,9859 10013,9834 10097,9784 10277,9677 10389,9562 10418,9454 10436,9388 10426,9312 10391,9258 10335,9171 10207,9127 10061,9146 9859,9170 9678,9276 9555,9439 9385,9665 9358,9963 9484,10214 9510,10268 9547,10321 9587,10370 9603,10387 9643,10428 9645,10428 9645,10428 9645,10424 9644,10417 Z M 12818,10209 C 12536,10196 12309,10113 12165,9969 12119,9923 12088,9880 12060,9825 12021,9746 12003,9665 12003,9571 12003,9505 12010,9450 12024,9392 12036,9346 12050,9311 12071,9268 12116,9178 12185,9101 12274,9038 12314,9010 12373,8978 12423,8957 L 12446,8947 12421,8923 C 12379,8879 12351,8842 12327,8793 12301,8738 12286,8682 12281,8616 12279,8591 12280,8525 12283,8498 12300,8342 12364,8215 12476,8114 12547,8049 12632,7998 12729,7960 12835,7919 12945,7897 13080,7888 13113,7886 13210,7886 13245,7888 13405,7898 13535,7930 13650,7986 13725,8023 13778,8060 13831,8113 13917,8199 13963,8294 13978,8416 13981,8445 13981,8514 13978,8549 13965,8671 13924,8772 13853,8862 13835,8883 13795,8924 13772,8943 13734,8975 13697,8999 13652,9023 L 13635,9032 13646,9040 C 13674,9061 13712,9096 13736,9124 13800,9198 13841,9288 13855,9389 13863,9446 13863,9519 13854,9584 13839,9677 13805,9766 13755,9842 13616,10050 13354,10180 13024,10206 12961,10211 12880,10212 12818,10209 Z M 13158,9792 C 13198,9777 13247,9750 13279,9725 13340,9676 13377,9608 13389,9531 13397,9459 13387,9393 13358,9344 13304,9254 13190,9198 13036,9184 12911,9173 12789,9188 12696,9225 12641,9247 12594,9277 12558,9316 12511,9363 12485,9415 12476,9482 12472,9503 12471,9546 12473,9565 12481,9633 12509,9687 12560,9730 12630,9790 12727,9823 12853,9831 12881,9833 12955,9832 12984,9829 13048,9823 13109,9811 13158,9792 Z M 13164,8826 C 13223,8821 13278,8810 13321,8793 13356,8779 13393,8758 13419,8737 13436,8724 13462,8696 13473,8680 13497,8647 13512,8607 13518,8562 13521,8542 13520,8499 13517,8481 13505,8404 13462,8349 13379,8309 13312,8276 13234,8262 13136,8264 13085,8266 13048,8270 13007,8279 12915,8299 12836,8348 12792,8408 12780,8425 12764,8457 12757,8476 12743,8522 12739,8580 12748,8625 12756,8663 12773,8696 12801,8726 12858,8785 12939,8817 13050,8826 13071,8827 13143,8827 13164,8826 Z M 14548,10210 C 14512,10208 14481,10206 14461,10204 14216,10182 13996,10102 13841,9978 13819,9961 13779,9924 13779,9921 13779,9920 14010,9568 14014,9562 14014,9561 14025,9571 14037,9582 14091,9633 14138,9665 14206,9700 14314,9754 14413,9782 14546,9794 14572,9797 14661,9798 14694,9796 14771,9791 14832,9781 14887,9763 15010,9723 15091,9653 15125,9554 15150,9481 15148,9395 15119,9337 15098,9294 15066,9264 15015,9239 14966,9215 14909,9202 14820,9194 14809,9194 14743,9192 14657,9192 14577,9191 14511,9191 14511,9191 14511,9190 14527,9118 14544,9029 L 14576,8869 14586,8860 C 14591,8856 14719,8732 14872,8585 L 15148,8317 14669,8317 C 14250,8316 14191,8316 14191,8314 14191,8312 14269,7927 14272,7918 L 14272,7915 15050,7915 C 15479,7915 15829,7915 15829,7916 15829,7916 15816,7987 15800,8075 L 15771,8232 15764,8238 C 15747,8254 15137,8845 15137,8846 15137,8846 15140,8847 15143,8848 15145,8848 15160,8852 15174,8856 15306,8894 15412,8961 15488,9053 15555,9133 15596,9235 15608,9351 15611,9380 15613,9442 15610,9472 15603,9576 15577,9670 15531,9756 15431,9941 15244,10083 15006,10155 14917,10184 14819,10200 14704,10208 14684,10209 14568,10211 14548,10210 Z"/>
    </g>
   </g>
   <g class="com.sun.star.drawing.LineShape">
    <g id="id4">
     <rect class="BoundingBox" stroke="none" fill="none" x="7885" y="11922" width="889" height="3639"/>
     <path fill="none" stroke="rgb(7,100,46)" stroke-width="388" stroke-linejoin="round" d="M 8579,12116 L 8079,15366"/>
    </g>
   </g>
   <g class="com.sun.star.drawing.LineShape">
    <g id="id5">
     <rect class="BoundingBox" stroke="none" fill="none" x="8485" y="11922" width="889" height="3639"/>
     <path fill="none" stroke="rgb(7,100,46)" stroke-width="388" stroke-linejoin="round" d="M 9179,12116 L 8679,15366"/>
    </g>
   </g>
   <g class="com.sun.star.drawing.LineShape">
    <g id="id6">
     <rect class="BoundingBox" stroke="none" fill="none" x="9085" y="11922" width="889" height="3639"/>
     <path fill="none" stroke="rgb(7,100,46)" stroke-width="388" stroke-linejoin="round" d="M 9779,12116 L 9279,15366"/>
    </g>
   </g>
   <g class="com.sun.star.drawing.LineShape">
    <g id="id7">
     <rect class="BoundingBox" stroke="none" fill="none" x="9685" y="11922" width="889" height="3639"/>
     <path fill="none" stroke="rgb(7,100,46)" stroke-width="388" stroke-linejoin="round" d="M 10379,12116 L 9879,15366"/>
    </g>
   </g>
   <g class="com.sun.star.drawing.LineShape">
    <g id="id8">
     <rect class="BoundingBox" stroke="none" fill="none" x="7035" y="12922" width="4389" height="1139"/>
     <path fill="none" stroke="rgb(7,100,46)" stroke-width="388" stroke-linejoin="round" d="M 11229,13116 L 7229,13866"/>
    </g>
   </g>
   <g class="com.sun.star.drawing.LineShape">
    <g id="id9">
     <rect class="BoundingBox" stroke="none" fill="none" x="11585" y="11922" width="889" height="3639"/>
     <path fill="none" stroke="rgb(7,100,46)" stroke-width="388" stroke-linejoin="round" d="M 12279,12116 L 11779,15366"/>
    </g>
   </g>
   <g class="com.sun.star.drawing.LineShape">
    <g id="id10">
     <rect class="BoundingBox" stroke="none" fill="none" x="12285" y="11922" width="889" height="3639"/>
     <path fill="none" stroke="rgb(7,100,46)" stroke-width="388" stroke-linejoin="round" d="M 12979,12116 L 12479,15366"/>
    </g>
   </g>
  </g>
  <g class="com.sun.star.drawing.CustomShape">
   <g id="id11">
    <rect class="BoundingBox" stroke="none" fill="none" x="1750" y="2500" width="18251" height="18251"/>
   </g>
  </g>
 </g>
</svg>