<?xml version="1.0" encoding="UTF-8"?>
<!DOCTYPE svg PUBLIC "-//W3C//DTD SVG 1.1//EN" "http://www.w3.org/Graphics/SVG/1.1/DTD/svg11.dtd">
<svg version="1.2" width="221.24mm" height="88.91mm" viewBox="9640 14757 22124 8891" preserveAspectRatio="xMidYMid" fill-rule="evenodd" stroke-width="28.222" stroke-linejoin="round" xmlns="http://www.w3.org/2000/svg" xmlns:ooo="http://xml.openoffice.org/svg/export" xmlns:xlink="http://www.w3.org/1999/xlink" xmlns:presentation="http://sun.com/xmlns/staroffice/presentation" xmlns:smil="http://www.w3.org/2001/SMIL20/" xmlns:anim="urn:oasis:names:tc:opendocument:xmlns:animation:1.0" xml:space="preserve">
 <defs class="EmbeddedBulletChars">
  <g id="bullet-char-template-57356" transform="scale(0.00048828125,-0.00048828125)">
   <path d="M 580,1141 L 1163,571 580,0 -4,571 580,1141 Z"/>
  </g>
  <g id="bullet-char-template-57354" transform="scale(0.00048828125,-0.00048828125)">
   <path d="M 8,1128 L 1137,1128 1137,0 8,0 8,1128 Z"/>
  </g>
  <g id="bullet-char-template-10146" transform="scale(0.00048828125,-0.00048828125)">
   <path d="M 174,0 L 602,739 174,1481 1456,739 174,0 Z M 1358,739 L 309,1346 659,739 1358,739 Z"/>
  </g>
  <g id="bullet-char-template-10132" transform="scale(0.00048828125,-0.00048828125)">
   <path d="M 2015,739 L 1276,0 717,0 1260,543 174,543 174,936 1260,936 717,1481 1274,1481 2015,739 Z"/>
  </g>
  <g id="bullet-char-template-10007" transform="scale(0.00048828125,-0.00048828125)">
   <path d="M 0,-2 C -7,14 -16,27 -25,37 L 356,567 C 262,823 215,952 215,954 215,979 228,992 255,992 264,992 276,990 289,987 310,991 331,999 354,1012 L 381,999 492,748 772,1049 836,1024 860,1049 C 881,1039 901,1025 922,1006 886,937 835,863 770,784 769,783 710,716 594,584 L 774,223 C 774,196 753,168 711,139 L 727,119 C 717,90 699,76 672,76 641,76 570,178 457,381 L 164,-76 C 142,-110 111,-127 72,-127 30,-127 9,-110 8,-76 1,-67 -2,-52 -2,-32 -2,-23 -1,-13 0,-2 Z"/>
  </g>
  <g id="bullet-char-template-10004" transform="scale(0.00048828125,-0.00048828125)">
   <path d="M 285,-33 C 182,-33 111,30 74,156 52,228 41,333 41,471 41,549 55,616 82,672 116,743 169,778 240,778 293,778 328,747 346,684 L 369,508 C 377,444 397,411 428,410 L 1163,1116 C 1174,1127 1196,1133 1229,1133 1271,1133 1292,1118 1292,1087 L 1292,965 C 1292,929 1282,901 1262,881 L 442,47 C 390,-6 338,-33 285,-33 Z"/>
  </g>
  <g id="bullet-char-template-9679" transform="scale(0.00048828125,-0.00048828125)">
   <path d="M 813,0 C 632,0 489,54 383,161 276,268 223,411 223,592 223,773 276,916 383,1023 489,1130 632,1184 813,1184 992,1184 1136,1130 1245,1023 1353,916 1407,772 1407,592 1407,412 1353,268 1245,161 1136,54 992,0 813,0 Z"/>
  </g>
  <g id="bullet-char-template-8226" transform="scale(0.00048828125,-0.00048828125)">
   <path d="M 346,457 C 273,457 209,483 155,535 101,586 74,649 74,723 74,796 101,859 155,911 209,963 273,989 346,989 419,989 480,963 531,910 582,859 608,796 608,723 608,648 583,586 532,535 482,483 420,457 346,457 Z"/>
  </g>
  <g id="bullet-char-template-8211" transform="scale(0.00048828125,-0.00048828125)">
   <path d="M -4,459 L 1135,459 1135,606 -4,606 -4,459 Z"/>
  </g>
  <g id="bullet-char-template-61548" transform="scale(0.00048828125,-0.00048828125)">
   <path d="M 173,740 C 173,903 231,1043 346,1159 462,1274 601,1332 765,1332 928,1332 1067,1274 1183,1159 1299,1043 1357,903 1357,740 1357,577 1299,437 1183,322 1067,206 928,148 765,148 601,148 462,206 346,322 231,437 173,577 173,740 Z"/>
  </g>
 </defs>
 <g class="Page">
  <g class="com.sun.star.drawing.ClosedBezierShape">
   <g id="id3">
    <rect class="BoundingBox" stroke="none" fill="none" x="9640" y="14757" width="22124" height="8891"/>
    <path fill="rgb(7,100,46)" stroke="none" d="M 19387,23645 C 18943,23632 18587,23595 18230,23522 17770,23429 17342,23282 16950,23084 16198,22703 15605,22142 15215,21442 15146,21319 15061,21141 15007,21007 14847,20610 14744,20172 14704,19725 14690,19563 14684,19291 14691,19130 14723,18426 14909,17754 15243,17139 15645,16402 16246,15785 16972,15368 16997,15354 17044,15327 17077,15309 L 17138,15276 16904,15274 C 16424,15270 11507,15258 11504,15262 11501,15264 10701,16925 10698,16934 10696,16940 10772,16940 12245,16940 13096,16940 13793,16941 13793,16942 13792,16943 13048,18323 12138,20007 L 10483,23070 10495,23072 C 10501,23073 11189,23080 12022,23087 13488,23100 13538,23100 13543,23095 13545,23091 13815,22628 14143,22066 L 14739,21042 14870,21274 C 14942,21402 15005,21513 15009,21522 L 15018,21538 14413,22561 13806,23583 11724,23584 C 10578,23585 9641,23585 9641,23584 9641,23584 10387,22202 11299,20513 12211,18824 12958,17442 12958,17440 12958,17439 12261,17438 11411,17438 L 9865,17438 10535,16098 11205,14758 11678,14760 C 14161,14770 17461,14774 19055,14768 19546,14766 20696,14764 21610,14763 22524,14762 23320,14761 23380,14760 L 23490,14757 23369,15000 C 23248,15243 23247,15244 23232,15253 23225,15258 23211,15264 23202,15266 23174,15271 22564,15273 22083,15269 21833,15268 21380,15264 21077,15263 20522,15259 20292,15257 20030,15249 19838,15244 19299,15244 19192,15249 18940,15262 18770,15278 18586,15308 18107,15387 17651,15548 17232,15788 16624,16135 16119,16631 15758,17233 15308,17983 15113,18861 15202,19739 15250,20205 15380,20668 15577,21068 15866,21653 16311,22137 16881,22486 17471,22846 18176,23062 18983,23127 19135,23138 19452,23143 20341,23146 20988,23148 23256,23142 23385,23138 L 23447,23136 23953,22274 C 24231,21799 24457,21411 24458,21410 24458,21409 24063,21407 23579,21406 23096,21405 22500,21402 22254,21401 21385,21395 20594,21397 20238,21407 20169,21409 20048,21413 19970,21417 19791,21425 19443,21428 19321,21423 19086,21413 18893,21391 18709,21353 18305,21270 17978,21118 17694,20882 17326,20575 17069,20154 16964,19687 16926,19516 16911,19368 16915,19183 16916,19073 16921,19019 16933,18928 17042,18118 17607,17435 18385,17171 18778,17038 19201,17021 19598,17124 19855,17191 20107,17310 20323,17466 20476,17577 20614,17707 20734,17851 20938,18095 21089,18387 21170,18693 21216,18870 21237,19031 21237,19222 21237,19324 21233,19373 21223,19467 21179,19865 21014,20260 20762,20572 20689,20661 20576,20780 20499,20846 L 20460,20879 22897,20880 25334,20882 24538,22253 C 24101,23006 23741,23626 23739,23630 L 23734,23637 22306,23631 C 20847,23625 20782,23626 20414,23636 20146,23644 20024,23645 19761,23646 19605,23647 19438,23646 19387,23645 Z M 19242,20868 C 19490,20848 19739,20762 19958,20620 20118,20515 20274,20368 20393,20210 20634,19890 20755,19502 20731,19121 20709,18751 20569,18408 20330,18132 20287,18081 20197,17990 20194,17994 20193,17995 20194,18010 20195,18029 20200,18079 20199,18186 20194,18235 20163,18507 20032,18752 19791,18994 19629,19156 19442,19295 19184,19448 19010,19550 18892,19631 18778,19726 18725,19770 18628,19867 18593,19911 18520,20002 18475,20087 18453,20172 18442,20220 18439,20301 18449,20357 18479,20535 18609,20696 18798,20794 18888,20839 18982,20865 19084,20872 19107,20874 19194,20871 19242,20868 Z M 17952,20411 C 17940,20337 17939,20217 17951,20136 17963,20060 17988,19972 18018,19900 18116,19670 18303,19453 18583,19244 18689,19164 18777,19108 18963,18997 19365,18759 19615,18502 19681,18261 19721,18113 19698,17942 19620,17823 19495,17629 19209,17531 18883,17572 18433,17627 18028,17862 17753,18228 17374,18731 17313,19396 17594,19958 17653,20077 17734,20198 17825,20305 17859,20344 17949,20436 17954,20436 17955,20436 17954,20426 17952,20411 Z M 25040,19947 C 24409,19918 23902,19732 23580,19410 23478,19308 23407,19210 23347,19088 23260,18912 23219,18732 23219,18521 23219,18375 23234,18250 23267,18121 23293,18019 23323,17940 23371,17845 23471,17645 23624,17472 23823,17332 23912,17269 24045,17197 24157,17150 L 24208,17129 24152,17073 C 24058,16978 23997,16894 23944,16784 23885,16662 23852,16536 23840,16390 23835,16334 23838,16185 23844,16124 23883,15778 24025,15495 24274,15268 24434,15123 24624,15008 24841,14924 25077,14834 25323,14784 25623,14764 25697,14760 25916,14760 25992,14764 26351,14787 26639,14856 26897,14982 27065,15064 27184,15147 27302,15266 27494,15459 27596,15670 27629,15943 27636,16008 27636,16163 27629,16239 27600,16512 27510,16737 27350,16937 27309,16987 27220,17078 27169,17120 27085,17190 27002,17244 26902,17297 L 26863,17317 26887,17335 C 26950,17383 27035,17461 27088,17523 27232,17689 27323,17890 27355,18115 27373,18244 27371,18407 27351,18550 27320,18757 27243,18957 27131,19126 26820,19591 26236,19882 25498,19939 25358,19950 25177,19953 25040,19947 Z M 25797,19016 C 25889,18982 25998,18921 26068,18865 26203,18756 26288,18605 26312,18433 26333,18272 26310,18124 26244,18014 26125,17813 25871,17688 25524,17657 25246,17633 24973,17666 24768,17749 24644,17799 24540,17866 24457,17951 24354,18057 24297,18174 24274,18324 24266,18370 24264,18465 24269,18508 24285,18660 24348,18780 24462,18878 24619,19012 24835,19086 25117,19102 25180,19106 25344,19104 25410,19098 25554,19085 25687,19057 25797,19016 Z M 25812,16858 C 25944,16847 26066,16822 26163,16784 26241,16753 26321,16707 26381,16659 26418,16630 26476,16569 26501,16533 26555,16458 26588,16369 26602,16268 26608,16225 26607,16129 26600,16088 26573,15916 26475,15794 26291,15704 26143,15631 25967,15599 25748,15604 25634,15607 25554,15616 25461,15636 25256,15683 25078,15789 24980,15925 24954,15962 24918,16033 24904,16076 24871,16179 24863,16309 24883,16409 24899,16494 24939,16569 25002,16635 25128,16765 25309,16837 25557,16857 25603,16861 25765,16861 25812,16858 Z M 28902,19948 C 28822,19945 28753,19940 28707,19936 28159,19886 27668,19707 27323,19430 27275,19391 27185,19309 27185,19304 27185,19301 27700,18515 27710,18501 27710,18500 27734,18521 27761,18546 27881,18660 27985,18732 28137,18809 28380,18931 28600,18993 28898,19021 28955,19026 29155,19028 29226,19024 29399,19014 29536,18990 29659,18951 29935,18861 30116,18703 30191,18484 30246,18321 30242,18129 30178,18000 30129,17904 30057,17837 29945,17781 29835,17727 29706,17698 29509,17680 29485,17679 29337,17676 29145,17675 28967,17674 28821,17673 28821,17672 28821,17671 28854,17509 28893,17312 L 28966,16954 28986,16935 C 28997,16925 29284,16647 29624,16319 L 30241,15722 29173,15721 C 28236,15720 28105,15719 28105,15715 28105,15711 28279,14852 28284,14832 L 28285,14824 30024,14824 C 30980,14824 31763,14825 31763,14826 31763,14827 31733,14986 31697,15180 L 31633,15532 31617,15546 C 31579,15581 30218,16900 30218,16903 30218,16904 30223,16905 30229,16907 30236,16908 30268,16917 30299,16926 30594,17010 30831,17159 31002,17365 31150,17543 31241,17770 31269,18031 31276,18094 31279,18234 31274,18301 31258,18534 31199,18743 31096,18934 30872,19349 30456,19666 29925,19827 29724,19889 29508,19927 29251,19944 29205,19947 28945,19951 28902,19948 Z"/>
   </g>
  </g>
 </g>
</svg>